<svg width="283.65" height="52.07" version="1.1" viewBox="0 0 75.049 13.777" xmlns="http://www.w3.org/2000/svg" xmlns:cc="http://creativecommons.org/ns#" xmlns:dc="http://purl.org/dc/elements/1.1/" xmlns:rdf="http://www.w3.org/1999/02/22-rdf-syntax-ns#">
    <defs>
        <clipPath id="a___0YCIgeJ3">
            <path d="M 0,89.436 H 253.026 V 0 H 0 Z"></path>
        </clipPath>
    </defs>
    <metadata>
        <rdf:rdf>
            <cc:work rdf:about="">
                <dc:format>image/svg+xml</dc:format>
                <dc:type rdf:resource="http://purl.org/dc/dcmitype/StillImage"></dc:type>
                <dc:title></dc:title>
            </cc:work>
        </rdf:rdf>
    </metadata>
    <g transform="translate(-46.399 -115.4)">
        <g transform="matrix(.35278 0 0 -.35278 38.379 137.89)">
            <g clip-path="url(#a___0YCIgeJ3)">
                <g transform="translate(112.47 44.518)">
                    <path d="m0 0c-0.035-0.054-0.047-0.118-0.028-0.183 0.014-0.06 0.064-0.111 0.12-0.135l4.909-2.021c0.099-0.042 0.214 0 0.264 0.089 0.111 0.181 10.818 18.517 31.703 10.337 0.096-0.044 0.218 2e-3 0.267 0.102l0.153 0.3c0.048 0.101 0.012 0.226-0.096 0.278-0.228 0.127-23.146 12.142-37.292-8.767" fill="#569bbe"></path>
                </g>
                <g transform="translate(33.425 32.236)">
                    <path d="m0 0v22.41c0 4.438-0.531 5.191-4.215 5.191v1.284h14.021v-1.284c-3.683 0-4.262-0.753-4.262-5.191v-20.235c0-6.608-4.033-9.718-9.051-9.718-3.811 0-7.184 2.221-7.184 5.457 0 1.022 0.748 1.859 1.815 1.859 1.065 0 1.819-0.837 1.819-1.859 0-1.553 0.98-3.458 3.416-3.458 2.311 0 3.641 1.639 3.641 5.544" fill="#00416c"></path>
                </g>
                <g transform="translate(70.422 59.837)">
                    <path d="m0 0v1.284h14.021v-1.284c-3.683 0-4.255-0.754-4.255-5.191v-12.958c0-4.434 0.572-5.191 4.255-5.191h5.104c4.083 0 4.573 1.018 5.144 3.37l0.227 0.889h1.285l-0.354-6.254h-25.427v1.282c3.684 0 4.215 0.754 4.215 5.194v13.668c0 4.437-0.531 5.191-4.215 5.191" fill="#00416c"></path>
                </g>
                <g transform="translate(97.847 35.784)">
                    <path d="m0 0c3.682 0 4.215 0.753 4.215 5.193v13.669c0 4.437-0.533 5.191-4.215 5.191v1.283h14.64c10.3 0 14.777-5.988 14.777-13.308 0-7.324-4.477-13.312-14.777-13.312h-14.64zm9.764 5.729c0-4.308 0.572-5.017 4.256-5.017h0.447c7.187 0 8.654 6.304 8.654 11.316 0 5.015-1.467 11.315-8.654 11.315h-4.703z" fill="#00416c"></path>
                </g>
                <g transform="translate(222.87 54.646)">
                    <path d="m0 0c0 4.437-0.582 5.191-4.262 5.191v1.283h10.514v-1.283c-3.725 0-4.256-0.754-4.256-5.191v-20.9h-1.111l-18.371 21.92v-14.688c0-4.44 0.577-5.194 4.261-5.194v-1.283h-10.472v1.283c3.679 0 4.21 0.754 4.21 5.194v13.668c0 4.437-0.531 5.191-4.21 5.191v1.283h8.872l14.825-17.658z" fill="#00416c"></path>
                </g>
                <g transform="translate(162.98 61.12)">
                    <path d="m0 0v-1.284c3.195 0 3.9-0.977 3.107-3.371l-4.038-12.513-5.59 17.168h-1.021l-5.417-17.122-4.037 12.467c-0.848 2.576-0.224 3.371 3.456 3.371v1.284h-14.019v-1.284c3.726 0 4.348-0.841 5.325-3.904l7.144-22.187h0.979l5.455 17.172 5.595-17.172h0.974l7.19 22.187c0.807 2.611 1.382 3.626 3.94 3.85v1.338z" fill="#00416c"></path>
                </g>
                <g transform="translate(196.22 40.755)">
                    <path d="m0 0-0.224-0.888c-0.578-2.352-1.061-3.371-5.143-3.371h-3.998c-3.686 0-4.259 0.756-4.259 5.193v5.901h2.445c4.438 0 5.143-0.531 5.143-4.263h1.289v10.519h-1.289c0-3.685-0.705-4.258-5.143-4.258h-2.445v9.54h6.793c4.081 0 4.528-1.019 5.143-3.375l0.225-0.887h1.281l-0.347 6.254h-21.611v-1.326c2.561-0.206 2.969-1.268 2.969-5.149v-13.666c0-4.442-0.532-5.195-4.212-5.195v-1.284h24.315l0.352 6.255z" fill="#00416c"></path>
                </g>
                <g transform="translate(67.365 40.755)">
                    <path d="m0 0-0.221-0.888c-0.579-2.352-1.065-3.371-5.146-3.371h-4c-3.684 0-4.256 0.756-4.256 5.193v5.901h2.443c4.438 0 5.145-0.531 5.145-4.263h1.287v10.519h-1.287c0-3.685-0.707-4.258-5.145-4.258h-2.443v9.54h6.789c4.084 0 4.529-1.019 5.148-3.375l0.222-0.887h1.283l-0.351 6.254h-21.609v-1.326c2.564-0.206 2.967-1.268 2.967-5.149v-13.666c0-4.442-0.528-5.195-4.212-5.195v-1.284h24.318l0.354 6.255z" fill="#00416c"></path>
                </g>
                <g transform="translate(226.84 35.882)">
                    <path d="m0 0c0 1.176 0.957 2.134 2.133 2.134 1.178 0 2.134-0.958 2.134-2.134 0-1.179-0.956-2.138-2.134-2.138-1.176 0-2.133 0.959-2.133 2.138m3.749 0c0 0.998-0.724 1.721-1.616 1.721-0.893 0-1.615-0.723-1.615-1.721 0-1.001 0.722-1.723 1.615-1.723 0.892 0 1.616 0.722 1.616 1.723m-2.438 1.218h0.901c0.58 0 0.892-0.201 0.892-0.71 0-0.413-0.235-0.616-0.634-0.652l0.651-1.057h-0.462l-0.626 1.041h-0.273v-1.041h-0.449zm0.449-1.036h0.396c0.269 0 0.498 0.035 0.498 0.361 0 0.285-0.259 0.333-0.491 0.333h-0.403z" fill="#00416c"></path>
                </g>
            </g>
        </g>
    </g>
</svg>