<?xml version="1.0" encoding="UTF-8"?>
<svg width="174px" height="37px" viewBox="0 0 174 37" version="1.1" xmlns="http://www.w3.org/2000/svg" xmlns:xlink="http://www.w3.org/1999/xlink">
    <title>logos/Milgard/tag</title>
    <defs>
        <polygon id="path-1" points="0 0 4.1998 0 4.1998 3.732 0 3.732"></polygon>
        <polygon id="path-3" points="0 0 29.0737 0 29.0737 21.024 0 21.024"></polygon>
        <polygon id="path-5" points="0 36.527 174.239 36.527 174.239 0 0 0"></polygon>
    </defs>
    <g id="logos/Milgard/tag" stroke="none" stroke-width="1" fill="none" fill-rule="evenodd">
        <g id="Group-3" transform="translate(170.039200, 17.982100)">
            <mask id="mask-2" fill="white">
                <use xlink:href="#path-1"></use>
            </mask>
            <g id="Clip-2"></g>
            <path d="M1.597,1.923 L2.294,1.923 C2.559,1.923 2.7,1.791 2.7,1.579 C2.7,1.35 2.559,1.243 2.294,1.243 L1.597,1.243 L1.597,1.923 Z M2.779,2.205 L3.282,2.787 L2.691,2.787 L2.259,2.276 L1.597,2.276 L1.597,2.787 L1.085,2.787 L1.085,0.864 L2.391,0.864 C2.876,0.864 3.238,1.129 3.238,1.57 C3.238,1.879 3.053,2.099 2.779,2.205 L2.779,2.205 Z M3.908,1.87 C3.908,0.838 3.114,0.255 2.1,0.255 C1.076,0.255 0.282,0.838 0.282,1.87 C0.282,2.893 1.076,3.485 2.1,3.485 C3.114,3.485 3.908,2.893 3.908,1.87 L3.908,1.87 Z M4.2,1.87 C4.2,3.026 3.238,3.732 2.091,3.732 C0.944,3.732 0,3.026 0,1.87 C0,0.705 0.944,0 2.091,0 C3.238,0 4.2,0.705 4.2,1.87 L4.2,1.87 Z" id="Fill-1" fill="#D6001C" mask="url(#mask-2)"></path>
        </g>
        <g id="Group-6" transform="translate(0.000000, 0.689800)">
            <mask id="mask-4" fill="white">
                <use xlink:href="#path-3"></use>
            </mask>
            <g id="Clip-5"></g>
            <polygon id="Fill-4" fill="#D6001C" mask="url(#mask-4)" points="14.4467 18.055 5.9167 7.599 5.9167 21.024 -0.0003 21.024 -0.0003 0 6.6977 0 14.5967 10.092 22.5557 0 29.0737 0 29.0737 21.024 22.9767 21.024 22.9767 7.599"></polygon>
        </g>
        <mask id="mask-6" fill="white">
            <use xlink:href="#path-5"></use>
        </mask>
        <g id="Clip-8"></g>
        <polygon id="Fill-7" fill="#D6001C" mask="url(#mask-6)" points="32.856 21.714 38.983 21.714 38.983 0.69 32.856 0.69"></polygon>
        <path d="M105.361,13.3346 L101.727,5.8856 L98.063,13.3346 L105.361,13.3346 Z M107.493,17.6896 L95.96,17.6896 L93.978,21.7136 L87.551,21.7136 L98.423,0.6906 L105.121,0.6906 L115.993,21.7136 L109.476,21.7136 L107.493,17.6896 Z" id="Fill-9" fill="#D6001C" mask="url(#mask-6)"></path>
        <path d="M132.4446,10.6314 C134.6366,10.6314 136.2286,10.0304 136.2286,7.9884 C136.2286,5.9454 134.6366,5.3454 132.4446,5.3454 L124.2146,5.3454 L124.2146,10.6314 L132.4446,10.6314 Z M135.9886,21.7134 L130.4326,15.0764 L124.2456,15.0764 L124.2456,21.7134 L118.1486,21.7134 L118.1486,0.6904 L132.8946,0.6904 C138.2716,0.6904 142.4456,3.0634 142.4456,7.8684 C142.4456,11.3824 140.2236,13.6044 136.9196,14.5664 L143.1066,21.7134 L135.9886,21.7134 Z" id="Fill-10" fill="#D6001C" mask="url(#mask-6)"></path>
        <path d="M164.2136,11.2023 C164.2136,7.4783 161.2706,5.5553 156.7646,5.5553 L151.6296,5.5553 L151.6296,16.8483 L156.7646,16.8483 C161.2706,16.8483 164.2136,14.9263 164.2136,11.2023 M170.4606,11.2023 C170.4606,17.8093 165.3246,21.7133 157.2456,21.7133 L145.5026,21.7133 L145.5026,0.6903 L157.2456,0.6903 C165.3246,0.6903 170.4606,4.5943 170.4606,11.2023" id="Fill-11" fill="#D6001C" mask="url(#mask-6)"></path>
        <polygon id="Fill-12" fill="#D6001C" mask="url(#mask-6)" points="60.3674 16.7884 48.8224 16.7884 48.8224 0.6904 42.6964 0.6904 42.6964 21.7134 60.3674 21.7134"></polygon>
        <path d="M76.4266,9.5504 L74.2056,13.8454 L81.3406,13.8454 L81.3406,15.7374 C79.8696,17.0884 77.8276,17.5994 75.2446,17.5994 C70.1386,17.5994 67.2556,15.3464 67.2556,11.2024 C67.2556,7.0874 70.0486,4.8344 75.1536,4.8344 C77.9776,4.8344 79.8696,5.5554 81.6716,7.1774 L86.1466,3.8734 C83.9546,1.8314 80.1996,-0.0006 75.0036,-0.0006 C66.3836,-0.0006 61.0376,4.0834 61.0376,11.2024 C61.0376,18.3204 66.3836,22.4054 75.0036,22.4054 C80.6206,22.4054 84.7646,20.5424 87.0176,17.7494 L87.0176,9.5504 L76.4266,9.5504 Z" id="Fill-13" fill="#D6001C" mask="url(#mask-6)"></path>
        <polygon id="Fill-14" fill="#132048" mask="url(#mask-6)" points="9.2076 30.5697 7.3176 36.3377 5.8126 36.3377 4.6036 32.3247 3.3886 36.3377 1.8976 36.3377 -0.0004 30.5697 1.5496 30.5697 2.6836 34.5327 3.9216 30.5697 5.3156 30.5697 6.5536 34.5327 7.6876 30.5697"></polygon>
        <polygon id="Fill-15" fill="#132048" mask="url(#mask-6)" points="11.342 36.338 12.854 36.338 12.854 30.57 11.342 30.57"></polygon>
        <polygon id="Fill-16" fill="#132048" mask="url(#mask-6)" points="21.6711 30.5697 21.6711 36.3377 20.3441 36.3377 16.9931 32.5477 16.9931 36.3377 15.5331 36.3377 15.5331 30.5697 17.1341 30.5697 20.2111 34.0957 20.2111 30.5697"></polygon>
        <path d="M28.9785,33.4533 C28.9785,32.4323 28.2515,31.9043 27.1395,31.9043 L25.8725,31.9043 L25.8725,35.0023 L27.1395,35.0023 C28.2515,35.0023 28.9785,34.4753 28.9785,33.4533 M30.5205,33.4533 C30.5205,35.2663 29.2525,36.3373 27.2585,36.3373 L24.3595,36.3373 L24.3595,30.5693 L27.2585,30.5693 C29.2525,30.5693 30.5205,31.6413 30.5205,33.4533" id="Fill-17" fill="#132048" mask="url(#mask-6)"></path>
        <path d="M37.8499,33.4533 C37.8499,32.3663 37.1459,31.7483 36.0039,31.7483 C34.8699,31.7483 34.1579,32.3663 34.1579,33.4533 C34.1579,34.5413 34.8619,35.1593 36.0039,35.1593 C37.1459,35.1593 37.8499,34.5413 37.8499,33.4533 M32.6229,33.4533 C32.6229,31.5013 33.9509,30.3803 36.0039,30.3803 C38.0579,30.3803 39.3919,31.5013 39.3919,33.4533 C39.3919,35.4063 38.0579,36.5273 36.0039,36.5273 C33.9509,36.5273 32.6229,35.4063 32.6229,33.4533" id="Fill-18" fill="#132048" mask="url(#mask-6)"></path>
        <polygon id="Fill-19" fill="#132048" mask="url(#mask-6)" points="50.23 30.5697 48.34 36.3377 46.835 36.3377 45.626 32.3247 44.411 36.3377 42.92 36.3377 41.022 30.5697 42.572 30.5697 43.706 34.5327 44.944 30.5697 46.338 30.5697 47.576 34.5327 48.71 30.5697"></polygon>
        <path d="M57.9801,34.5326 C57.9801,35.7196 56.9941,36.5266 55.1111,36.5266 C53.7761,36.5266 52.6571,36.1236 51.8411,35.3986 L52.6351,34.3596 C53.2501,34.9366 54.1031,35.2576 55.1411,35.2576 C56.0301,35.2576 56.4751,35.0766 56.4751,34.6976 C56.4751,34.3266 56.0601,34.2036 54.9921,34.1046 C53.4501,33.9556 52.0491,33.5776 52.0491,32.2916 C52.0491,31.0556 53.2501,30.3806 54.8961,30.3806 C56.0081,30.3806 57.0311,30.6776 57.7431,31.2376 L56.9791,32.2836 C56.4011,31.8306 55.7041,31.6486 54.8961,31.6406 C54.2881,31.6406 53.5541,31.7476 53.5541,32.1596 C53.5541,32.5476 54.1551,32.5966 55.0811,32.6786 C56.7791,32.8356 57.9801,33.2066 57.9801,34.5326" id="Fill-20" fill="#132048" mask="url(#mask-6)"></path>
        <path d="M65.4568,34.9037 C65.1758,34.4667 64.6568,34.3517 64.2338,34.3517 C63.8188,34.3517 63.2628,34.4667 63.2628,34.9527 C63.2628,35.4387 63.8188,35.5547 64.2338,35.5547 C64.6568,35.5547 65.1758,35.4387 65.4568,34.9947 L65.4568,34.9037 Z M66.8738,33.7747 L66.8738,35.4727 C66.8738,35.8017 66.9248,36.0737 67.0508,36.3377 L65.5678,36.3377 C65.4868,36.1977 65.4278,36.0247 65.4278,35.8677 L65.4278,35.8597 C65.1158,36.2217 64.5448,36.5027 63.8188,36.5027 C62.9518,36.5027 61.8468,36.1227 61.8468,34.9527 C61.8468,33.7827 62.9518,33.4037 63.8188,33.4037 C64.5448,33.4037 65.1158,33.6847 65.4278,34.0557 L65.4278,33.7587 C65.4278,33.0657 64.9678,32.7367 64.0708,32.7367 C63.5818,32.7367 63.0998,32.8107 62.5958,33.0907 L62.2618,32.0607 C62.8178,31.7647 63.6628,31.5917 64.3748,31.5917 C65.9388,31.5917 66.8738,32.3657 66.8738,33.7747 L66.8738,33.7747 Z" id="Fill-21" fill="#132048" mask="url(#mask-6)"></path>
        <path d="M67.8487,36.3374 L67.8487,31.7724 L69.3087,31.7724 L69.3087,32.4984 C69.6577,31.9294 70.2657,31.6074 70.9997,31.6074 C72.1927,31.6074 72.8377,32.4564 72.8377,33.6514 L72.8377,36.3374 L71.3777,36.3374 L71.3777,33.7584 C71.3777,33.1644 71.0737,32.8194 70.5177,32.8194 C70.0357,32.8194 69.6197,33.0744 69.3087,33.6344 L69.3087,36.3374 L67.8487,36.3374 Z" id="Fill-22" fill="#132048" mask="url(#mask-6)"></path>
        <path d="M77.4426,34.6073 L77.4426,33.5033 C77.1236,33.0333 76.6646,32.8523 76.1676,32.8523 C75.3966,32.8523 74.9666,33.2973 74.9666,34.0553 C74.9666,34.8213 75.3966,35.2583 76.1676,35.2583 C76.6646,35.2583 77.1236,35.0763 77.4426,34.6073 M77.4496,32.4403 L77.4496,30.2403 L78.9106,30.2403 L78.9106,36.3373 L77.4496,36.3373 L77.4496,35.6703 C77.0866,36.1803 76.5086,36.5103 75.7606,36.5103 C74.4696,36.5103 73.5806,35.5623 73.5806,34.0553 C73.5806,32.5473 74.4696,31.6073 75.7606,31.6073 C76.5086,31.6073 77.0866,31.9293 77.4496,32.4403" id="Fill-23" fill="#132048" mask="url(#mask-6)"></path>
        <path d="M88.0711,33.4533 C88.0711,32.4323 87.3441,31.9043 86.2321,31.9043 L84.9651,31.9043 L84.9651,35.0023 L86.2321,35.0023 C87.3441,35.0023 88.0711,34.4753 88.0711,33.4533 M89.6131,33.4533 C89.6131,35.2663 88.3451,36.3373 86.3511,36.3373 L83.4521,36.3373 L83.4521,30.5693 L86.3511,30.5693 C88.3451,30.5693 89.6131,31.6413 89.6131,33.4533" id="Fill-24" fill="#132048" mask="url(#mask-6)"></path>
        <path d="M96.9424,33.4533 C96.9424,32.3663 96.2384,31.7483 95.0964,31.7483 C93.9614,31.7483 93.2504,32.3663 93.2504,33.4533 C93.2504,34.5413 93.9544,35.1593 95.0964,35.1593 C96.2384,35.1593 96.9424,34.5413 96.9424,33.4533 M91.7154,33.4533 C91.7154,31.5013 93.0424,30.3803 95.0964,30.3803 C97.1494,30.3803 98.4844,31.5013 98.4844,33.4533 C98.4844,35.4063 97.1494,36.5273 95.0964,36.5273 C93.0424,36.5273 91.7154,35.4063 91.7154,33.4533" id="Fill-25" fill="#132048" mask="url(#mask-6)"></path>
        <path d="M105.8137,33.4533 C105.8137,32.3663 105.1097,31.7483 103.9677,31.7483 C102.8327,31.7483 102.1217,32.3663 102.1217,33.4533 C102.1217,34.5413 102.8257,35.1593 103.9677,35.1593 C105.1097,35.1593 105.8137,34.5413 105.8137,33.4533 M100.5867,33.4533 C100.5867,31.5013 101.9137,30.3803 103.9677,30.3803 C106.0207,30.3803 107.3557,31.5013 107.3557,33.4533 C107.3557,35.4063 106.0207,36.5273 103.9677,36.5273 C101.9137,36.5273 100.5867,35.4063 100.5867,33.4533" id="Fill-26" fill="#132048" mask="url(#mask-6)"></path>
        <path d="M113.2766,33.2971 C113.8176,33.2971 114.2106,33.1321 114.2106,32.5721 C114.2106,32.0111 113.8176,31.8471 113.2766,31.8471 L111.2456,31.8471 L111.2456,33.2971 L113.2766,33.2971 Z M114.1516,36.3371 L112.7796,34.5161 L111.2526,34.5161 L111.2526,36.3371 L109.7476,36.3371 L109.7476,30.5701 L113.3876,30.5701 C114.7146,30.5701 115.7456,31.2201 115.7456,32.5391 C115.7456,33.5031 115.1966,34.1131 114.3816,34.3761 L115.9086,36.3371 L114.1516,36.3371 Z" id="Fill-27" fill="#132048" mask="url(#mask-6)"></path>
        <path d="M123.8441,34.5326 C123.8441,35.7196 122.8581,36.5266 120.9751,36.5266 C119.6401,36.5266 118.5211,36.1236 117.7051,35.3986 L118.4981,34.3596 C119.1141,34.9366 119.9671,35.2576 121.0051,35.2576 C121.8941,35.2576 122.3391,35.0766 122.3391,34.6976 C122.3391,34.3266 121.9241,34.2036 120.8561,34.1046 C119.3141,33.9556 117.9131,33.5776 117.9131,32.2916 C117.9131,31.0556 119.1141,30.3806 120.7601,30.3806 C121.8721,30.3806 122.8951,30.6776 123.6071,31.2376 L122.8431,32.2836 C122.2651,31.8306 121.5681,31.6486 120.7601,31.6406 C120.1521,31.6406 119.4181,31.7476 119.4181,32.1596 C119.4181,32.5476 120.0181,32.5966 120.9451,32.6786 C122.6431,32.8356 123.8441,33.2066 123.8441,34.5326" id="Fill-28" fill="#132048" mask="url(#mask-6)"></path>
    </g>
</svg>