<svg version="1.1" viewBox="0 0 771 190" xmlns="http://www.w3.org/2000/svg">
  <g>
    <ellipse cx="122.25" cy="95.669" rx="82.739" ry="80.264"
      style="fill:none;paint-order:stroke fill markers;stroke-linecap:round;stroke-linejoin:round;stroke-width:8.5;stroke:#f00" />
    <path d="m121.48 13.718 0.81501 163.82" style="fill:#f00;stroke-width:2;stroke:#f00" />
    <path d="m40.939 94.896 163.82-0.81501" style="fill:#f00;stroke-width:2;stroke:#f00" />
  </g>
  <path
    d="m192.38 141.05-16.704-18.048h9.3716l12.205 12.453 11.665-12.534 8.5184 0.0807-15.735 16.673 19.115 19.327-10.07 0.0236-13.525-14.524-13.167 14.677-9.0139-0.045zm-66.376-0.04772v-18h37v5.4142l-28.793 0.0858-0.0228 9.3365 16.816 0.16356v5h-16.883l-0.0586 9.9465 30.086 0.14304-0.01216 5.9104h-38.133zm115-12.323h-17v-5.7956h41.971l-0.0677 5.9415-16.904-0.065v30.242h-8zm36-5.7956h37v5.6136l-28.5 5e-3 0.18646 8.7588 16.863-0.0836v5.8248h-17.55v10.35l29.984-0.0117-0.01305 5.6615h-37.971zm55 0.11858h35.69l3.31 3.6575-0.16147 15.033-3.496 3.31h-9.0692l13.604 13.753-9.0903 0.24665-14.003-13.641-9.2034-0.0202-0.10697 13.661h-7.4738zm32 7.0704-1.8501-1.4245-21.568-0.0389-1.0166 0.60699-0.0269 10.804 24.388-0.01842zm26-7.1482 7.5-0.0252-0.019 36.103h-7.481zm27 32.42v-27.898l4.1806-4.5636h36.319l4.0008 4.0246v29.255l-3.8823 2.8388h-37.308zm37-26.396-29.661 0.0691 0.03355 23.984h29.628zm27-6.1837h35.69l3.31 3.8946v15.033l-3.6575 3.31h-9.4728l16.342 14-10.711-6e-3 -15.323-13.994h-8.1774v14h-8zm32 15.167 0.32294-7.5035-2.5127-1.9712-21.795-0.0735 0.0335 11.619h22.262zm25.993 17.465-0.0238-5.5129 5.478-0.0104 0.0679 3.1878 27.55-0.0748 0.0426-9.6712-27.944 0.0822-4.4552-3.6287 0.0995-13.518 3.5737-3.4999h30.618l3.4871 4.1468-0.0523 5.1254-6.2016-0.0208 6e-3 -3.4998-25.304-2.1e-4 -0.0406 8.8328 28.956 0.0627 3.2024 3.83-0.0523 14.632-3.1431 3.1429h-31.927zm86.007-32.562h8v30.168h28v6h-36zm50 0h6.9465l0.069 30.313 27.984-0.08945v5.9436h-35zm49.557 33.945-1.5567-2.2225v-27.555l4-4.2513h31.618l3.5318 3.2826 0.0275 8.7177-6.691-0.0326-0.0671-5.8001h-24.419v24.326h24.463l0.0373-7.0963 6.6812 0.07 0.0219 9.563-3.4815 3.3826h-32.608zm-654.83-109.86h6.1449l18.058 22.729 18.201-22.692h5.5092l0.27016 37.048-7.537-0.031539 0.47767-26.658-17.468 20.907-16.88-20.546-0.55805 26.328h-6.2169zm81.076 0.12045h7.2672l20.767 36.964h-7.9926l-4.978-8h-23.297l-5.0669 8h-7.6472zm11.346 22.293-7.9071-14.313-8.0718 14.376zm29.935-22.329h35.01l4.1471 4.9091v13.519l-3.737 4.0309-9.3811-0.21199 16.198 14.728-10.206-0.031662-14.844-13.944-8.6801-0.02331v14.023h-8.5876zm31.969 6.5-24.05-0.15104 0.05165 10.169 23.998-0.018zm26.313-6.5091 7.9124 0.04626v15.65l21.765-15.791 10.311 0.01769-23.381 17.944 26.431 19.153-11.863-0.011153-23.399-16.825v16.825h-7.9076zm57.694 34.855 0.0401-7.3489 5.3872 0.07962 0.042 3.7277 27.554-0.01629-0.0303-10.401-28.292 0.11668-3.8859-3.2002-0.011-13.334 3.3956-4.5175 29.578 0.01193 3.8776 2.846 0.25903 6.9934-5.8335-0.04062-0.13753-4.3107h-25.784v9.7594h28.339l4.445 3.1134 0.10594 14.822-2.8347 3.8823-32.432 0.0511zm58.286-34.817 5.7801-0.04588 17.732 22.654 18.374-22.642 5.2708 0.02223 0.54512 37.089-6.6938 0.01115v-25.82l-17.539 19.703-17.429-20.501-0.44096 26.5h-5.9871zm80.626 0.01312h7.2368l19.681 37.003-7.3875 0.05814-4.1375-8.5569-23.887-0.0095-4.7417 8.5629-7.7513-0.0038zm3.5216 5.8839-9.0229 16.523h17.532zm38.009-5.7779 5.439 0.01294 30.678 26.423-0.11709-26.436 6.5-4.94e-4 0.13748 36.852-5.7586 0.096705-30.221-25.331-0.15786 25.234h-7.0451z" />
</svg>